Coordinates
nRows=5
nColumns=38

# SIMM Motion File Header:
name Coordinates
datacolumns 38
datarows 5
otherdata 1
range 1.24100000000000010000 1.24500000000000010000

Units are S.I. units (second, meters, Newtons, ...)
Angles are in degrees.

endheader
time	pelvis_tilt	pelvis_list	pelvis_rotation	pelvis_tx	pelvis_ty	pelvis_tz	hip_flexion_r	hip_adduction_r	hip_rotation_r	knee_angle_r	ankle_angle_r	subtalar_angle_r	mtp_angle_r	hip_flexion_l	hip_adduction_l	hip_rotation_l	knee_angle_l	ankle_angle_l	subtalar_angle_l	mtp_angle_l	lumbar_extension	lumbar_bending	lumbar_rotation	arm_flex_r	arm_add_r	arm_rot_r	elbow_flex_r	pro_sup_r	wrist_flex_r	wrist_dev_r	arm_flex_l	arm_add_l	arm_rot_l	elbow_flex_l	pro_sup_l	wrist_flex_l	wrist_dev_l
      1.24100000000000010000	     -8.06150906976417400000	     -2.46812602837070340000	      2.07071827077766680000	      0.90415448062178194000	      1.00977867156792200000	     -0.31855985370850698000	     50.67030309010359400000	      6.27793210217842200000	     -1.36095476262373460000	    -99.06923294551828000000	      3.00237603096070370000	     -0.00000000000005856665	      0.00000000000016967970	     -1.09402372419240560000	      3.86123801097827180000	      9.25450863695941810000	    -26.91555608891257700000	     14.38310963654988400000	      0.00000000000004844454	     -0.00000000000007246860	     -1.53249102813977410000	      1.57248884822550460000	    -12.15074274626615400000	    -35.63675636461930200000	    -16.49657429255969600000	     -8.89751721310469890000	    100.23099840903582000000	     98.04760863921393400000	     -0.00000000000000264452	      0.00000000000004476029	    -15.63050431267260100000	    -16.28586221380601600000	     -0.41710033735406060000	    128.77564885115086000000	     89.55761178527797000000	      0.00000000000004115247	     -0.00000000000000204319
      1.24200000000000000000	     -8.05702381809798670000	     -2.57874075813832790000	      1.97301145328581760000	      0.90462050411583061000	      1.01051696821234230000	     -0.31836765019321278000	     50.75873918473703800000	      6.42571795971622350000	     -1.35032349648303600000	    -98.58085302895476300000	      2.98211840067489400000	     -0.00000000000005867757	      0.00000000000017020280	     -1.54005220121780240000	      3.67980936043736360000	      9.12678393273840170000	    -26.49022242082373400000	     13.74871528954013100000	      0.00000000000004893354	     -0.00000000000007294223	     -1.45986926953935780000	      1.70656314362120390000	    -12.13751780483128900000	    -35.82225905829164200000	    -16.50763799303397100000	     -8.91764606561329210000	    100.39875208788682000000	     98.00348795996701800000	     -0.00000000000000263134	      0.00000000000004487061	    -15.59669480542518400000	    -16.20122124021059300000	     -0.36419336172221001000	    129.01536397577757000000	     89.61836236493422800000	      0.00000000000004123296	     -0.00000000000000213218
      1.24300000000000010000	     -8.05174321964990010000	     -2.68870243260958920000	      1.87389196238449700000	      0.90509034956969936000	      1.01126024185176890000	     -0.31817281997039915000	     50.84095140233436200000	      6.57380503846361910000	     -1.33917606585007260000	    -98.08621900644054400000	      2.96107900103768040000	     -0.00000000000005878172	      0.00000000000017072694	     -1.98529246562803710000	      3.49992924880613470000	      8.99219346934431480000	    -26.06449609075613000000	     13.10049871920141300000	      0.00000000000004939441	     -0.00000000000007341417	     -1.38846950378985690000	      1.84011649761767520000	    -12.12193887061124200000	    -36.00780739329411500000	    -16.51728449676070600000	     -8.93908837041453810000	    100.56592144350739000000	     97.95767586993369500000	     -0.00000000000000261812	      0.00000000000004498084	    -15.56503422604431500000	    -16.11594127073562900000	     -0.31142941682542791000	    129.25417494358791000000	     89.68222404638115100000	      0.00000000000004131374	     -0.00000000000000223038
      1.24400000000000000000	     -8.04574612900291090000	     -2.79787987866488040000	      1.77345628354992060000	      0.90556358854946051000	      1.01200805144072210000	     -0.31797559068743159000	     50.91706090100941400000	      6.72198562534298280000	     -1.32746186894010170000	    -97.58543269102837300000	      2.93923158430275100000	     -0.00000000000005888038	      0.00000000000017125136	     -2.42946304790749950000	      3.32183153544594400000	      8.85077435500933160000	    -25.63871908264190900000	     12.43893931289128400000	      0.00000000000004985289	     -0.00000000000007385921	     -1.31825636774330190000	      1.97300857983177110000	    -12.10415155678496600000	    -36.19331321705123400000	    -16.52554114550718700000	     -8.96177553280061010000	    100.73246369395243000000	     97.91017603323707900000	     -0.00000000000000260461	      0.00000000000004509074	    -15.53554055049909100000	    -16.03009596253431100000	     -0.25882420241053194000	    129.49205985348408000000	     89.74899045750366600000	      0.00000000000004139442	     -0.00000000000000232306
      1.24500000000000010000	     -8.03911299621514170000	     -2.90613860361367450000	      1.67180538700471340000	      0.90603979108374055000	      1.01275995110674380000	     -0.31777619890994602000	     50.98719195474738100000	      6.87004698238820670000	     -1.31513051610848810000	    -97.07859706289076500000	      2.91655717063241450000	     -0.00000000000005897537	      0.00000000000017177850	     -2.87227584629333510000	      3.14575082722591180000	      8.70258073428348310000	    -25.21324586525680200000	     11.76455870315408500000	      0.00000000000005032482	     -0.00000000000007429385	     -1.24918995100877940000	      2.10509516524329680000	    -12.08430455565207000000	    -36.37868984880371000000	    -16.53243540855775300000	     -8.98564001441452830000	    100.89834069822312000000	     97.86100781380163500000	     -0.00000000000000259090	      0.00000000000004520035	    -15.50822682957956100000	    -15.94376090861132800000	     -0.20639000931156981000	    129.72899540885902000000	     89.81845127660348300000	      0.00000000000004147563	     -0.00000000000000242367
